$MeshFormat
4.1 0 8
$EndMeshFormat
$PhysicalNames
7
2 1 "top"
2 3 "back"
2 4 "right"
2 5 "front"
2 6 "left"
2 7 "bottom"
3 2 "cube"
$EndPhysicalNames
$Entities
8 12 6 1
1 -0.0025 -0.0025 0 0 
2 0.0025 -0.0025 0 0 
3 0.0025 0.0025 0 0 
4 -0.0025 0.0025 0 0 
5 -0.0025 -0.0025 0.005 0 
6 0.0025 -0.0025 0.005 0 
10 0.0025 0.0025 0.005 0 
14 -0.0025 0.0025 0.005 0 
1 -0.0025 -0.0025 0 0.0025 -0.0025 0 0 2 1 -2 
2 0.0025 -0.0025 0 0.0025 0.0025 0 0 2 2 -3 
3 -0.0025 0.0025 0 0.0025 0.0025 0 0 2 3 -4 
4 -0.0025 -0.0025 0 -0.0025 0.0025 0 0 2 4 -1 
8 -0.0025 -0.0025 0.005 0.0025 -0.0025 0.005 0 2 5 -6 
9 0.0025 -0.0025 0.005 0.0025 0.0025 0.005 0 2 6 -10 
10 -0.0025 0.0025 0.005 0.0025 0.0025 0.005 0 2 10 -14 
11 -0.0025 -0.0025 0.005 -0.0025 0.0025 0.005 0 2 14 -5 
13 -0.0025 -0.0025 0 -0.0025 -0.0025 0.005 0 2 1 -5 
14 0.0025 -0.0025 0 0.0025 -0.0025 0.005 0 2 2 -6 
18 0.0025 0.0025 0 0.0025 0.0025 0.005 0 2 3 -10 
22 -0.0025 0.0025 0 -0.0025 0.0025 0.005 0 2 4 -14 
6 -0.0025 -0.0025 0 0.0025 0.0025 0 1 7 4 1 2 3 4 
15 -0.0025 -0.0025 0 0.0025 -0.0025 0.005 1 3 4 1 14 -8 -13 
19 0.0025 -0.0025 0 0.0025 0.0025 0.005 1 4 4 2 18 -9 -14 
23 -0.0025 0.0025 0 0.0025 0.0025 0.005 1 5 4 3 22 -10 -18 
27 -0.0025 -0.0025 0 -0.0025 0.0025 0.005 1 6 4 4 13 -11 -22 
28 -0.0025 -0.0025 0.005 0.0025 0.0025 0.005 1 1 4 8 9 10 11 
1 -0.0025 -0.0025 0 0.0025 0.0025 0.005 1 2 6 -6 28 15 19 23 27 
$EndEntities
$Nodes
27 64 1 64
0 1 0 1
1
-0.0025 -0.0025 0
0 2 0 1
2
0.0025 -0.0025 0
0 3 0 1
3
0.0025 0.0025 0
0 4 0 1
4
-0.0025 0.0025 0
0 5 0 1
5
-0.0025 -0.0025 0.005
0 6 0 1
6
0.0025 -0.0025 0.005
0 10 0 1
7
0.0025 0.0025 0.005
0 14 0 1
8
-0.0025 0.0025 0.005
1 1 0 2
9
10
-0.0008333333333372978 -0.0025 0
0.0008333333333289329 -0.0025 0
1 2 0 2
11
12
0.0025 -0.0008333333333372978 0
0.0025 0.0008333333333289329 0
1 3 0 2
13
14
0.0008333333333372978 0.0025 0
-0.0008333333333289329 0.0025 0
1 4 0 2
15
16
-0.0025 0.0008333333333372978 0
-0.0025 -0.0008333333333289329 0
1 8 0 2
17
18
-0.0008333333333372978 -0.0025 0.005
0.0008333333333289329 -0.0025 0.005
1 9 0 2
19
20
0.0025 -0.0008333333333372978 0.005
0.0025 0.0008333333333289329 0.005
1 10 0 2
21
22
0.0008333333333372978 0.0025 0.005
-0.0008333333333289329 0.0025 0.005
1 11 0 2
23
24
-0.0025 0.0008333333333372978 0.005
-0.0025 -0.0008333333333289329 0.005
1 13 0 2
25
26
-0.0025 -0.0025 0.001666666666666667
-0.0025 -0.0025 0.003333333333333333
1 14 0 2
27
28
0.0025 -0.0025 0.001666666666666667
0.0025 -0.0025 0.003333333333333333
1 18 0 2
29
30
0.0025 0.0025 0.001666666666666667
0.0025 0.0025 0.003333333333333333
1 22 0 2
31
32
-0.0025 0.0025 0.001666666666666667
-0.0025 0.0025 0.003333333333333333
2 6 0 4
33
34
35
36
-0.0008333333333345094 -0.0008333333333317209 0
-0.0008333333333317213 0.0008333333333345092 0
0.0008333333333317213 -0.000833333333334509 0
0.0008333333333345094 0.0008333333333317211 0
2 15 0 4
37
38
39
40
-0.0008333333333372978 -0.0025 0.001666666666666667
-0.0008333333333372978 -0.0025 0.003333333333333333
0.0008333333333289329 -0.0025 0.001666666666666667
0.0008333333333289329 -0.0025 0.003333333333333333
2 19 0 4
41
42
43
44
0.0025 -0.0008333333333372978 0.001666666666666667
0.0025 -0.0008333333333372978 0.003333333333333333
0.0025 0.0008333333333289329 0.001666666666666667
0.0025 0.0008333333333289329 0.003333333333333333
2 23 0 4
45
46
47
48
0.0008333333333372978 0.0025 0.001666666666666667
0.0008333333333372978 0.0025 0.003333333333333333
-0.0008333333333289329 0.0025 0.001666666666666667
-0.0008333333333289329 0.0025 0.003333333333333333
2 27 0 4
49
50
51
52
-0.0025 0.0008333333333372978 0.001666666666666667
-0.0025 0.0008333333333372978 0.003333333333333333
-0.0025 -0.0008333333333289329 0.001666666666666667
-0.0025 -0.0008333333333289329 0.003333333333333333
2 28 0 4
53
54
55
56
-0.0008333333333345094 -0.0008333333333317209 0.005
-0.0008333333333317213 0.0008333333333345092 0.005
0.0008333333333317213 -0.000833333333334509 0.005
0.0008333333333345094 0.0008333333333317211 0.005
3 1 0 8
57
58
59
60
61
62
63
64
-0.0008333333333345094 -0.0008333333333317209 0.001666666666666667
-0.0008333333333345094 -0.0008333333333317209 0.003333333333333333
-0.0008333333333317213 0.0008333333333345092 0.001666666666666667
-0.0008333333333317213 0.0008333333333345092 0.003333333333333333
0.0008333333333317213 -0.000833333333334509 0.001666666666666667
0.0008333333333317213 -0.000833333333334509 0.003333333333333333
0.0008333333333345094 0.0008333333333317211 0.001666666666666667
0.0008333333333345094 0.0008333333333317211 0.003333333333333333
$EndNodes
$Elements
7 270 1 270
2 6 2 18
1 1 9 16 
2 16 9 33 
3 16 33 15 
4 15 33 34 
5 15 34 4 
6 4 34 14 
7 9 10 33 
8 33 10 35 
9 33 35 34 
10 34 35 36 
11 34 36 14 
12 14 36 13 
13 10 2 35 
14 35 2 11 
15 35 11 36 
16 36 11 12 
17 36 12 13 
18 13 12 3 
2 15 2 18
19 25 1 9 
20 25 9 37 
21 26 25 37 
22 26 37 38 
23 5 26 38 
24 5 38 17 
25 37 9 10 
26 37 10 39 
27 38 37 39 
28 38 39 40 
29 17 38 40 
30 17 40 18 
31 39 10 2 
32 39 2 27 
33 40 39 27 
34 40 27 28 
35 18 40 28 
36 18 28 6 
2 19 2 18
37 27 2 41 
38 2 11 41 
39 28 27 42 
40 27 41 42 
41 6 28 19 
42 28 42 19 
43 41 11 43 
44 11 12 43 
45 42 41 44 
46 41 43 44 
47 19 42 20 
48 42 44 20 
49 43 12 29 
50 12 3 29 
51 44 43 30 
52 43 29 30 
53 20 44 7 
54 44 30 7 
2 23 2 18
55 29 3 13 
56 29 13 45 
57 30 29 45 
58 30 45 46 
59 7 30 46 
60 7 46 21 
61 45 13 14 
62 45 14 47 
63 46 45 47 
64 46 47 48 
65 21 46 48 
66 21 48 22 
67 47 14 4 
68 47 4 31 
69 48 47 31 
70 48 31 32 
71 22 48 32 
72 22 32 8 
2 27 2 18
73 31 4 15 
74 31 15 49 
75 32 31 49 
76 32 49 50 
77 8 32 50 
78 8 50 23 
79 49 15 16 
80 49 16 51 
81 50 49 51 
82 50 51 52 
83 23 50 52 
84 23 52 24 
85 51 16 1 
86 51 1 25 
87 52 51 25 
88 52 25 26 
89 24 52 26 
90 24 26 5 
2 28 2 18
91 5 17 24 
92 24 17 53 
93 24 53 23 
94 23 53 54 
95 23 54 8 
96 8 54 22 
97 17 18 53 
98 53 18 55 
99 53 55 54 
100 54 55 56 
101 54 56 22 
102 22 56 21 
103 18 6 55 
104 55 6 19 
105 55 19 56 
106 56 19 20 
107 56 20 21 
108 21 20 7 
3 1 4 162
109 1 9 16 51 
110 37 25 51 9 
111 9 25 51 1 
112 25 37 51 52 
113 38 26 52 37 
114 37 26 52 25 
115 26 38 52 24 
116 17 5 24 38 
117 38 5 24 26 
118 16 9 33 57 
119 37 51 57 9 
120 9 51 57 16 
121 51 37 57 58 
122 38 52 58 37 
123 37 52 58 51 
124 52 38 58 53 
125 17 24 53 38 
126 38 24 53 52 
127 16 33 15 49 
128 57 51 49 16 
129 33 16 57 49 
130 51 57 49 50 
131 58 52 50 51 
132 57 51 58 50 
133 52 58 50 23 
134 53 24 23 52 
135 58 52 53 23 
136 15 33 34 59 
137 57 49 59 33 
138 33 49 59 15 
139 49 57 59 60 
140 58 50 60 57 
141 57 50 60 49 
142 50 58 60 54 
143 53 23 54 58 
144 58 23 54 50 
145 15 34 4 31 
146 59 49 31 15 
147 34 15 59 31 
148 49 59 31 32 
149 60 50 32 49 
150 59 49 60 32 
151 50 60 32 8 
152 54 23 8 50 
153 60 50 54 8 
154 4 34 14 47 
155 59 31 47 34 
156 34 31 47 4 
157 31 59 47 48 
158 60 32 48 59 
159 59 32 48 31 
160 32 60 48 22 
161 54 8 22 60 
162 60 8 22 32 
163 9 10 33 57 
164 39 37 57 10 
165 10 37 57 9 
166 37 39 57 58 
167 40 38 58 39 
168 39 38 58 37 
169 38 40 58 53 
170 18 17 53 40 
171 40 17 53 38 
172 33 10 35 61 
173 39 57 61 10 
174 10 57 61 33 
175 57 39 61 62 
176 40 58 62 39 
177 39 58 62 57 
178 58 40 62 55 
179 18 53 55 40 
180 40 53 55 58 
181 33 35 34 59 
182 61 57 59 33 
183 35 33 61 59 
184 57 61 59 60 
185 62 58 60 57 
186 61 57 62 60 
187 58 62 60 54 
188 55 53 54 58 
189 62 58 55 54 
190 34 35 36 63 
191 61 59 63 35 
192 35 59 63 34 
193 59 61 63 64 
194 62 60 64 61 
195 61 60 64 59 
196 60 62 64 56 
197 55 54 56 62 
198 62 54 56 60 
199 34 36 14 47 
200 63 59 47 34 
201 36 34 63 47 
202 59 63 47 48 
203 64 60 48 59 
204 63 59 64 48 
205 60 64 48 22 
206 56 54 22 60 
207 64 60 56 22 
208 14 36 13 45 
209 63 47 45 36 
210 36 47 45 14 
211 47 63 45 46 
212 64 48 46 63 
213 63 48 46 47 
214 48 64 46 21 
215 56 22 21 64 
216 64 22 21 48 
217 10 2 35 61 
218 27 39 61 2 
219 2 39 61 10 
220 39 27 61 62 
221 28 40 62 27 
222 27 40 62 39 
223 40 28 62 55 
224 6 18 55 28 
225 28 18 55 40 
226 35 2 11 41 
227 27 61 41 2 
228 2 61 41 35 
229 61 27 41 42 
230 28 62 42 27 
231 27 62 42 61 
232 62 28 42 19 
233 6 55 19 28 
234 28 55 19 62 
235 35 11 36 63 
236 41 61 63 35 
237 11 35 41 63 
238 61 41 63 64 
239 42 62 64 61 
240 41 61 42 64 
241 62 42 64 56 
242 19 55 56 62 
243 42 62 19 56 
244 36 11 12 43 
245 41 63 43 11 
246 11 63 43 36 
247 63 41 43 44 
248 42 64 44 41 
249 41 64 44 63 
250 64 42 44 20 
251 19 56 20 42 
252 42 56 20 64 
253 36 12 13 45 
254 43 63 45 36 
255 12 36 43 45 
256 63 43 45 46 
257 44 64 46 63 
258 43 63 44 46 
259 64 44 46 21 
260 20 56 21 64 
261 44 64 20 21 
262 13 12 3 29 
263 43 45 29 12 
264 12 45 29 13 
265 45 43 29 30 
266 44 46 30 43 
267 43 46 30 45 
268 46 44 30 7 
269 20 21 7 44 
270 44 21 7 46 
$EndElements
